<?xml version="1.0" encoding="UTF-8" standalone="no"?>
<svg width="1600px" height="1600px" viewBox="0 0 1600 1600" version="1.1" xmlns="http://www.w3.org/2000/svg" xmlns:xlink="http://www.w3.org/1999/xlink" xmlns:sketch="http://www.bohemiancoding.com/sketch/ns">
    <title>Simplisafe Symbol</title>
    <desc>The Simplisafe logo without text</desc>
    <defs></defs>
    <g id="Page-1" stroke="none" stroke-width="1" fill="none" fill-rule="evenodd" sketch:type="MSPage">
        <g id="simplisafe-logo-symbol" sketch:type="MSLayerGroup">
            <path d="M800,0 C1241.53364,0 1600,358.466359 1600,800 C1600,1241.53217 1241.53364,1600 800,1600 C358.467834,1600 0,1241.53217 0,800 C0,358.466359 358.467834,0 800,0 L800,0 Z" id="Fill-1" fill="#008CC1" sketch:type="MSShapeGroup"></path>
            <path d="M1098.61751,678.341014 L597.235023,678.341014 C597.235023,678.341014 560.368664,685.714286 560.368664,611.981567 C560.368664,538.248848 641.474654,368.663594 788.940092,368.663594 C936.40553,368.663594 1014.48848,517.382488 1024.88479,538.248848 C1032.25806,552.995392 1047.00461,575.115207 1061.75115,575.115207 C1076.4977,575.115207 1128.1106,582.488479 1113.36406,516.129032 C1098.61751,449.769585 995.391705,280.184332 796.313364,280.184332 C597.235023,280.184332 471.889401,449.769585 471.889401,538.248848 L471.889401,722.580645 C471.889401,722.580645 471.889401,766.820276 501.382488,766.820276 L995.391705,766.820276 C995.391705,766.820276 1032.25806,766.820276 1032.25806,811.059908 L1032.25806,1001.51152 C1032.39816,1043.21253 1020.01106,1084.01032 996.718894,1118.59908 C963.391705,1167.70507 903.520737,1223.96313 803.686636,1223.96313 C626.728111,1223.96313 560.368664,1076.4977 560.368664,1010.13825 L560.368664,892.165899 C560.368664,892.165899 545.62212,855.299539 508.75576,855.299539 C471.889401,855.299539 471.889401,906.912442 471.889401,906.912442 L471.889401,1014.11982 C471.831152,1050.86452 479.571613,1087.2059 494.599078,1120.73733 C530.064516,1199.33641 615.078341,1319.81567 803.686636,1319.81567 C1027.39171,1319.81567 1100.68203,1150.23041 1121.17972,1082.39631 C1125.86912,1066.63816 1128.05899,1050.24221 1127.6682,1033.80645 L1120.73733,707.834101 C1120.73733,707.834101 1120.73733,678.341014 1098.61751,678.341014 L1098.61751,678.341014 Z" id="Fill-2" fill="#FFFFFF" sketch:type="MSShapeGroup"></path>
        </g>
    </g>
</svg>